<?xml version="1.0" standalone="no"?>
<!DOCTYPE svg PUBLIC "-//W3C//DTD SVG 20010904//EN"
 "http://www.w3.org/TR/2001/REC-SVG-20010904/DTD/svg10.dtd">
<svg version="1.0" xmlns="http://www.w3.org/2000/svg"
 width="1024.000000pt" height="1024.000000pt" viewBox="0 0 1024.000000 1024.000000" fill="rgb(163, 226, 255)"
 preserveAspectRatio="xMidYMid meet">

<g transform="translate(0.000000,1024.000000) scale(0.100000,-0.100000)"
 stroke="none">
<path d="M2835 10230 c-505 -10 -744 -30 -1025 -86 -243 -48 -379 -93 -563
-186 -478 -239 -849 -645 -1047 -1143 -74 -184 -144 -544 -170 -865 -21 -267
-29 -1027 -29 -2875 0 -1836 7 -2557 29 -2800 24 -270 66 -515 119 -701 137
-479 481 -926 924 -1201 355 -219 721 -314 1372 -355 305 -19 5045 -19 5350 0
557 35 873 102 1180 252 445 217 793 568 1006 1015 65 137 89 204 129 360 57
221 90 457 112 805 19 284 19 5014 0 5315 -28 462 -86 801 -178 1039 -167 432
-483 814 -876 1058 -100 62 -320 169 -405 197 -252 84 -565 135 -978 162 -203
13 -4337 21 -4950 9z m2645 -1800 c1022 -88 1933 -501 2586 -1172 256 -264
443 -525 594 -832 216 -439 310 -838 310 -1311 0 -628 -192 -1217 -570 -1745
-118 -165 -204 -265 -369 -431 -657 -656 -1551 -1054 -2566 -1139 -154 -13
-536 -13 -690 0 -440 37 -888 139 -1251 286 l-84 34 -87 -20 c-109 -26 -292
-55 -448 -72 -77 -8 -255 -13 -500 -13 -379 0 -514 8 -695 41 -156 28 -149 45
25 55 141 9 226 27 329 68 177 71 328 194 451 366 25 34 45 67 45 72 0 6 -46
48 -102 93 -121 98 -364 339 -465 460 -605 727 -845 1633 -667 2525 91 456
317 931 629 1320 113 142 338 369 488 494 630 522 1431 843 2297 920 136 12
605 13 740 1z"/>
<path d="M3303 6252 c-232 -87 -424 -160 -428 -163 -3 -3 4 -28 16 -55 11 -27
142 -346 291 -709 445 -1087 626 -1523 770 -1855 108 -249 125 -280 147 -280
21 0 -2 -32 526 730 469 676 457 660 464 660 3 0 162 -220 353 -488 446 -626
573 -796 598 -800 16 -3 34 25 103 165 159 317 1222 2571 1216 2577 -7 6 -830
326 -839 326 -4 0 -88 -240 -186 -532 -242 -728 -346 -1028 -356 -1028 -4 0
-23 24 -42 53 -18 28 -147 216 -286 417 -139 201 -313 456 -387 568 -93 140
-140 202 -153 202 -13 0 -64 -74 -182 -267 -390 -637 -643 -1041 -650 -1035
-9 9 -205 628 -369 1162 -72 234 -136 443 -143 465 -7 22 -19 41 -27 42 -8 0
-204 -69 -436 -155z"/>
</g>
</svg>
